<svg width="67" height="76" viewBox="0 0 67 76" fill="none" xmlns="http://www.w3.org/2000/svg">
<path d="M38.9732 2.75018C39.8898 0.916725 41.106 0 42.6219 0C44.1379 0 44.8958 0.775688 44.8958 2.32707C44.8958 3.27905 44.4375 4.31918 43.5209 5.44746C41.6877 7.6335 39.9426 10.1545 38.2857 13.0104L35.5888 17.8232L67 75.4182H45.6193L24.8261 35.7777L7.50908 67.5908C6.52197 69.4243 5.67588 71.2753 4.9708 73.1441C4.26572 75.048 3.33149 76 2.16811 76C0.722702 76 0 75.2772 0 73.8316C0 72.9854 0.317284 72.0158 0.951859 70.9228L37.1223 6.39944C37.5101 5.69427 37.8274 5.1125 38.0742 4.65414L38.9732 2.75018Z" fill="#FFDA2F"/>
</svg>
