<svg width="227" height="76" viewBox="0 0 227 76" fill="none" xmlns="http://www.w3.org/2000/svg">
<path d="M93.168 62V47.608L99.832 21.848H93.728L90.592 35.288L90.088 40.048L89.696 35.288L86.672 21.848H80.456L86.952 47.664V62H93.168ZM109.862 62.56C112.699 62.56 114.958 61.776 116.638 60.208C118.355 58.64 119.214 56.1947 119.214 52.872V31.032C119.214 27.8213 118.374 25.4133 116.694 23.808C115.014 22.2027 112.737 21.4 109.862 21.4C107.025 21.4 104.747 22.2027 103.03 23.808C101.35 25.4133 100.51 27.8213 100.51 31.032V52.872C100.51 56.232 101.35 58.696 103.03 60.264C104.71 61.7947 106.987 62.56 109.862 62.56ZM109.862 56.904C108.705 56.904 107.883 56.5307 107.398 55.784C106.95 55.0373 106.726 53.88 106.726 52.312V31.312C106.726 29.7813 106.95 28.6427 107.398 27.896C107.883 27.1493 108.705 26.776 109.862 26.776C110.982 26.776 111.785 27.1493 112.27 27.896C112.755 28.6427 112.998 29.7813 112.998 31.312V52.312C112.998 53.88 112.755 55.0373 112.27 55.784C111.785 56.5307 110.982 56.904 109.862 56.904ZM131.4 62.56C134.274 62.56 136.458 61.7947 137.952 60.264C139.482 58.7333 140.248 56.3067 140.248 52.984V21.848H134.2V52.536C134.2 54.0293 133.976 55.0933 133.528 55.728C133.117 56.3627 132.408 56.68 131.4 56.68C130.392 56.68 129.664 56.3627 129.216 55.728C128.805 55.0933 128.6 54.0293 128.6 52.536V21.848H122.496V52.984C122.496 56.3067 123.242 58.7333 124.736 60.264C126.229 61.7947 128.45 62.56 131.4 62.56ZM149.312 40.832L148.752 34L150.04 39.208L157.6 62H162.64V21.848H157.208V42.904L157.712 49.456L156.48 44.472L149.032 21.848H143.88V62H149.312V40.832ZM182.087 62V56.12H172.287L181.919 27.168V21.848H166.239V27.672H175.591L165.623 56.792V62H182.087ZM200.007 56.288H190.991V44.416H198.775V38.816H190.991V27.392H199.727V21.848H185.055V62H200.007V56.288ZM217.778 56.288H208.762V44.416H216.546V38.816H208.762V27.392H217.498V21.848H202.826V62H217.778V56.288Z" fill="white"/>
<path d="M38.9732 2.75018C39.8898 0.916725 41.106 0 42.6219 0C44.1379 0 44.8958 0.775688 44.8958 2.32707C44.8958 3.27905 44.4375 4.31918 43.5209 5.44746C41.6877 7.6335 39.9426 10.1545 38.2857 13.0104L35.5888 17.8232L67 75.4182H45.6193L24.8261 35.7777L7.50908 67.5908C6.52197 69.4243 5.67588 71.2753 4.9708 73.1441C4.26572 75.048 3.33149 76 2.16811 76C0.722702 76 0 75.2772 0 73.8316C0 72.9854 0.317284 72.0158 0.951859 70.9228L37.1223 6.39944C37.5101 5.69427 37.8274 5.1125 38.0742 4.65414L38.9732 2.75018Z" fill="#FFDA2F"/>
</svg>
